# xmcd
#
# Track frame offsets:
#	150
#	20482
#	38430
#	56786
#	75687
#	92934
#	111436
#	135507
#	159030
#	180549
#	195843
#	220705
#	243952
#	261985
#	295047
#	314906
#
# Disc length: 4571 seconds
#
# Revision: 0
# Processed by: cddbd v1.5.2PL0 Copyright (c) Steve Scherf et al.
# Submitted via: audiograbber 1.83.01
#
DISCID=d711d910
DTITLE=Neil Murray - Sing The Song - Essential  Neil Murray CD2 x Fade
DYEAR=2011
DGENRE=Aust Country
TTITLE0=Calm and Crystal Clear
TTITLE1=Where My People Go
TTITLE2=Broken Song
TTITLE3=Bulukbara Man
TTITLE4=In My Heart
TTITLE5=Myall Creek
TTITLE6=Melbourne Town
TTITLE7=Sing Your Destiny
TTITLE8=Cleverman
TTITLE9=Tom Wills Would
TTITLE10=This Good Earth
TTITLE11=Circumstances
TTITLE12=Far Away
TTITLE13=High On A Hill
TTITLE14=Meet Me In Bedourie
TTITLE15=Anywhere Tonight
EXTD=
EXTT0=
EXTT1=
EXTT2=
EXTT3=
EXTT4=
EXTT5=
EXTT6=
EXTT7=
EXTT8=
EXTT9=
EXTT10=
EXTT11=
EXTT12=
EXTT13=
EXTT14=
EXTT15=
PLAYORDER=
